# xmcd CD database file
#
# Track frame offsets:
#	150
#	12305
#	29732
#	39830
#	52922
#	65417
#	79997
#	91725
#	104125
#	115645
#	133655
#	151327
#
# Disc length: 2176 seconds
#
# Revision: 0
# Processed by: cddbd v1.4PL0 Copyright (c) Steve Scherf et al.
# Submitted via: CDex 1.50
#
DISCID=95087e0c
DTITLE=Doug Kershaw - Hot Diggidy Doug
DYEAR=1900
DGENRE=Blues
TTITLE0=Cajun Baby
TTITLE1=Louisiana
TTITLE2=Jambalaya
TTITLE3=I Wanna Hold You
TTITLE4=Calling Baton Rouge
TTITLE5=Toot Toot
TTITLE6=Boogie Queen
TTITLE7=Just Like You
TTITLE8=Louisiana Man
TTITLE9=Mansion in Spain
TTITLE10=Cajun Stripper
TTITLE11=Fiddlin' Man
EXTD=
EXTT0=
EXTT1=
EXTT2=
EXTT3=
EXTT4=
EXTT5=
EXTT6=
EXTT7=
EXTT8=
EXTT9=
EXTT10=
EXTT11=
PLAYORDER=
